<?xml version="1.0" encoding="utf-8"?>
<!-- Generator: Adobe Illustrator 17.0.0, SVG Export Plug-In . SVG Version: 6.00 Build 0)  -->
<!DOCTYPE svg PUBLIC "-//W3C//DTD SVG 1.1//EN" "http://www.w3.org/Graphics/SVG/1.1/DTD/svg11.dtd">
<svg version="1.1" id="Layer_1" xmlns="http://www.w3.org/2000/svg" xmlns:xlink="http://www.w3.org/1999/xlink" x="0px" y="0px"
	 width="200px" height="75px" viewBox="0 0 200 75" enable-background="new 0 0 200 75" xml:space="preserve">
<path fill="#3F894A" d="M24.819,52.086c-0.075-1.002-0.354-2.099-1.461-3.109c0-0.002-0.002-0.002-0.005-0.004
	c-0.043-0.04-0.091-0.082-0.137-0.122c-0.007-0.004-0.011-0.01-0.016-0.013c-1.532-1.399-2.756-4.088-2.756-6.943
	c0-3.98,1.763-15.292,2.144-15.292c0.302,0,0.308,5.456,0.108,10.585c-0.139,3.562,0.388,4.965,1.238,4.965
	c1.132,0,1.313-3.585,1.43-7.615c0.096-3.318,0.386-7.91,0.618-7.935h0.001c0.362,0,0.661,4.563,0.758,7.889
	c0.12,4.13,0.406,7.559,1.352,7.559c0.993,0,1.295-1.586,1.225-5.107c-0.086-4.298-0.087-10.341,0.215-10.341
	c0.381,0,1.674,3.971,1.986,15.292c0.079,2.853-1.224,5.543-2.757,6.943c-0.005,0.004-0.009,0.01-0.016,0.013
	c-0.046,0.04-0.094,0.082-0.137,0.122c-0.002,0.002-0.005,0.002-0.005,0.004c-1.108,1.01-1.386,2.107-1.462,3.109
	c-0.12,1.6-0.174,3.65-0.168,5.957l8.726,8.726c0.122-3.803,0.11-7.39-0.058-10.098c-0.063-1.012-0.218-2.187-0.395-3.124
	C35.192,53.248,35,52.972,35,52.735c0-3.282,0-30.934,0-32.965c0-2.812,2.633-4.141,5.055,2.031
	c2.422,6.172,1.746,28.122,1.746,29.683c0,0.331-0.287,0.722-0.758,1.107c-0.188,0.122-0.352,0.245-0.51,0.371
	c-1.451,1.164-1.658,2.506-1.734,3.709c-0.181,2.912-0.327,6.84-0.365,10.961L50.46,55.606c-0.017-1.413-0.056-2.684-0.122-3.743
	c-0.025-0.406-0.126-0.819-0.203-1.254c-0.218-1.232-1.743-2.241-2.625-3.127c-1.714-1.721-2.816-4.614-2.816-7.876
	c0-5.297,2.936-12.002,6.558-12.002s6.559,6.704,6.559,12.002c0,3.262-1.102,6.156-2.816,7.876
	c-0.883,0.886-2.408,1.895-2.626,3.127c-0.077,0.436-0.178,0.848-0.203,1.254c-0.04,0.637-0.069,1.355-0.091,2.129L68.876,37.19
	L37.499,5.813L6.122,37.19l18.853,18.853C24.954,54.55,24.903,53.206,24.819,52.086z"/>
<g>
	<path fill="#333333" d="M84.654,25.138h7.344c0.96,0,1.932,0.078,2.916,0.234c0.983,0.156,1.866,0.48,2.646,0.972
		c0.779,0.492,1.415,1.176,1.907,2.052c0.492,0.876,0.738,2.034,0.738,3.474c0,1.296-0.384,2.424-1.152,3.384
		c-0.768,0.96-1.907,1.597-3.42,1.908v0.072c0.84,0.072,1.608,0.27,2.305,0.594c0.695,0.324,1.296,0.755,1.8,1.295
		s0.894,1.183,1.17,1.926c0.275,0.744,0.414,1.561,0.414,2.448c0,1.465-0.282,2.658-0.846,3.582
		c-0.564,0.925-1.272,1.65-2.124,2.178c-0.853,0.528-1.776,0.889-2.772,1.08c-0.996,0.192-1.926,0.288-2.79,0.288h-8.136V25.138z
		 M87.03,36.153h4.932c1.225,0,2.22-0.149,2.988-0.45c0.768-0.3,1.368-0.666,1.8-1.098s0.72-0.894,0.864-1.386
		c0.144-0.492,0.216-0.942,0.216-1.35c0-0.888-0.15-1.626-0.45-2.214c-0.3-0.587-0.702-1.056-1.206-1.404
		c-0.504-0.348-1.092-0.594-1.764-0.738s-1.381-0.216-2.124-0.216H87.03V36.153z M87.03,48.465h5.436
		c1.392,0,2.514-0.167,3.366-0.504c0.852-0.336,1.506-0.756,1.962-1.26s0.762-1.038,0.918-1.602c0.156-0.564,0.234-1.074,0.234-1.53
		c0-0.937-0.181-1.74-0.54-2.412c-0.36-0.672-0.828-1.218-1.404-1.638s-1.23-0.726-1.962-0.918
		c-0.732-0.192-1.471-0.288-2.214-0.288H87.03V48.465z"/>
	<path fill="#333333" d="M105.915,38.673c0-0.312-0.013-0.689-0.036-1.133c-0.024-0.444-0.042-0.894-0.054-1.35
		c-0.013-0.456-0.03-0.882-0.054-1.278c-0.024-0.396-0.036-0.702-0.036-0.918h2.16c0.023,0.624,0.041,1.224,0.054,1.8
		c0.012,0.576,0.042,0.948,0.09,1.116c0.552-0.984,1.26-1.788,2.124-2.412c0.864-0.624,1.92-0.936,3.168-0.936
		c0.216,0,0.426,0.018,0.63,0.054c0.204,0.036,0.414,0.078,0.63,0.126l-0.252,2.124c-0.288-0.096-0.563-0.144-0.828-0.144
		c-0.936,0-1.745,0.15-2.43,0.45c-0.684,0.3-1.248,0.714-1.692,1.242c-0.444,0.528-0.773,1.146-0.989,1.854s-0.324,1.47-0.324,2.286
		v9.071h-2.16V38.673z"/>
	<path fill="#333333" d="M131.694,45.945c0,0.312,0.012,0.69,0.036,1.134c0.023,0.444,0.041,0.895,0.054,1.351
		c0.012,0.456,0.03,0.882,0.054,1.277c0.024,0.396,0.036,0.702,0.036,0.918h-2.16c-0.023-0.624-0.042-1.224-0.054-1.8
		c-0.013-0.576-0.042-0.948-0.09-1.116h-0.108c-0.432,0.913-1.151,1.698-2.159,2.358c-1.009,0.66-2.185,0.99-3.528,0.99
		c-1.296,0-2.358-0.204-3.187-0.612c-0.827-0.408-1.476-0.941-1.943-1.603c-0.468-0.659-0.787-1.422-0.954-2.285
		c-0.168-0.864-0.252-1.752-0.252-2.664v-9.9h2.16v9.792c0,0.672,0.06,1.326,0.18,1.962c0.12,0.637,0.329,1.206,0.63,1.71
		c0.3,0.504,0.72,0.906,1.26,1.206c0.54,0.301,1.242,0.45,2.106,0.45c0.792,0,1.542-0.138,2.25-0.414
		c0.707-0.275,1.319-0.695,1.836-1.26c0.516-0.563,0.924-1.272,1.224-2.124s0.45-1.854,0.45-3.006v-8.316h2.16V45.945z"/>
	<path fill="#333333" d="M136.95,38.673c0-0.312-0.013-0.689-0.036-1.133c-0.024-0.444-0.042-0.894-0.054-1.35
		c-0.013-0.456-0.03-0.882-0.054-1.278c-0.024-0.396-0.036-0.702-0.036-0.918h2.16c0.023,0.624,0.041,1.224,0.054,1.8
		c0.012,0.576,0.042,0.948,0.09,1.116h0.108c0.432-0.912,1.151-1.698,2.16-2.358c1.008-0.66,2.184-0.99,3.527-0.99
		c1.296,0,2.352,0.204,3.168,0.612c0.815,0.409,1.458,0.942,1.926,1.602c0.469,0.661,0.792,1.422,0.973,2.286
		c0.18,0.863,0.27,1.752,0.27,2.664v9.899h-2.16v-9.792c0-0.672-0.06-1.325-0.18-1.962c-0.12-0.636-0.33-1.206-0.63-1.709
		c-0.301-0.504-0.72-0.906-1.26-1.206c-0.54-0.3-1.242-0.45-2.106-0.45c-0.792,0-1.542,0.139-2.25,0.414
		c-0.708,0.276-1.32,0.696-1.836,1.26c-0.517,0.564-0.924,1.271-1.224,2.124c-0.301,0.852-0.45,1.854-0.45,3.006v8.315h-2.16V38.673
		z"/>
	<path fill="#333333" d="M170.186,48.177c-0.815,0.984-1.74,1.711-2.771,2.179c-1.032,0.468-2.148,0.702-3.348,0.702
		c-1.272,0-2.448-0.217-3.528-0.648s-2.004-1.038-2.772-1.818c-0.768-0.779-1.367-1.703-1.8-2.771
		c-0.432-1.067-0.647-2.237-0.647-3.51s0.216-2.442,0.647-3.511c0.433-1.067,1.032-1.991,1.8-2.771
		c0.769-0.779,1.692-1.386,2.772-1.818s2.256-0.648,3.528-0.648c1.224,0,2.357,0.252,3.401,0.756s1.974,1.212,2.79,2.124
		l-1.728,1.296c-0.625-0.696-1.309-1.242-2.053-1.638s-1.548-0.594-2.411-0.594c-1.009,0-1.921,0.18-2.736,0.54
		c-0.816,0.36-1.512,0.846-2.088,1.458s-1.015,1.332-1.314,2.16s-0.45,1.71-0.45,2.646c0,0.936,0.15,1.817,0.45,2.646
		s0.738,1.548,1.314,2.16s1.271,1.098,2.088,1.458c0.815,0.36,1.728,0.54,2.736,0.54c0.911,0,1.746-0.21,2.502-0.63
		s1.409-0.978,1.962-1.674L170.186,48.177z"/>
	<path fill="#333333" d="M173.191,23.41h2.16v13.5h0.072c0.432-0.912,1.151-1.698,2.16-2.358c1.008-0.66,2.184-0.99,3.527-0.99
		c1.296,0,2.352,0.204,3.168,0.612c0.815,0.409,1.458,0.942,1.926,1.602c0.469,0.661,0.792,1.422,0.973,2.286
		c0.18,0.863,0.27,1.752,0.27,2.664v9.899h-2.16v-9.792c0-0.672-0.06-1.325-0.18-1.962c-0.12-0.636-0.33-1.206-0.63-1.709
		c-0.301-0.504-0.72-0.906-1.26-1.206c-0.54-0.3-1.242-0.45-2.106-0.45c-0.792,0-1.542,0.139-2.25,0.414
		c-0.708,0.276-1.32,0.696-1.836,1.26c-0.517,0.564-0.924,1.271-1.224,2.124c-0.301,0.852-0.45,1.854-0.45,3.006v8.315h-2.16V23.41z
		"/>
</g>
<g>
</g>
<g>
</g>
<g>
</g>
<g>
</g>
<g>
</g>
<g>
</g>
<g>
</g>
<g>
</g>
<g>
</g>
<g>
</g>
<g>
</g>
<g>
</g>
<g>
</g>
<g>
</g>
<g>
</g>
</svg>
