<?xml version="1.0" encoding="utf-8"?>
<!-- Generator: Adobe Illustrator 17.0.0, SVG Export Plug-In . SVG Version: 6.00 Build 0)  -->
<!DOCTYPE svg PUBLIC "-//W3C//DTD SVG 1.1//EN" "http://www.w3.org/Graphics/SVG/1.1/DTD/svg11.dtd">
<svg version="1.1" id="Layer_1" xmlns="http://www.w3.org/2000/svg" xmlns:xlink="http://www.w3.org/1999/xlink" x="0px" y="0px"
	 width="512px" height="512px" viewBox="0 0 512 512" enable-background="new 0 0 512 512" xml:space="preserve">
<path fill="#3F894A" d="M155.284,376.356c-0.599-7.998-2.825-16.755-11.665-24.815c0-0.015-0.018-0.015-0.038-0.03
	c-0.345-0.318-0.728-0.653-1.094-0.971c-0.055-0.03-0.09-0.076-0.128-0.106c-12.232-11.17-21.997-32.634-21.997-55.416
	c0-31.765,14.072-122.065,17.111-122.065c2.411,0,2.459,43.551,0.859,84.488c-1.111,28.431,3.099,39.631,9.883,39.631
	c9.033,0,10.483-28.589,11.416-60.762C160.4,209.83,162.716,173,164.567,173h0.004c2.891,0,5.277,36.4,6.048,62.95
	c0.957,32.964,3.237,60.326,10.788,60.326c7.928,0,10.34-12.667,9.776-40.771c-0.687-34.307-0.692-82.548,1.719-82.548
	c3.039,0,13.36,31.695,15.851,122.063c0.628,22.775-9.771,44.245-22.004,55.415c-0.038,0.03-0.073,0.076-0.129,0.105
	c-0.363,0.318-0.747,0.654-1.091,0.971c-0.019,0.015-0.038,0.015-0.038,0.03c-8.842,8.06-11.066,16.816-11.666,24.815
	c-0.955,12.771-1.386,29.133-1.339,47.546l69.65,69.65c0.975-30.354,0.88-58.986-0.464-80.602
	c-0.502-8.075-1.517-17.454-2.929-24.935c-0.44-2.383-1.745-4.583-1.745-6.481c0-26.194,0-246.923,0-263.132
	c0-22.446,20.791-33.055,40.126,16.208c19.335,49.263,13.826,224.477,13.826,236.937c0,2.641-2.345,5.767-6.11,8.833
	c-1.503,0.971-2.841,1.958-4.101,2.96c-11.579,9.288-13.252,20.002-13.859,29.61c-1.446,23.247-2.614,54.6-2.919,87.494
	l95.997-95.994c-0.135-11.277-0.452-21.424-0.979-29.879c-0.202-3.245-1.003-6.534-1.619-10.013
	c-1.74-9.831-13.91-17.884-20.957-24.956c-13.685-13.734-22.477-36.827-22.477-62.868c0-42.284,23.439-95.799,52.351-95.799
	c28.911,0,52.353,53.515,52.353,95.799c0,26.041-8.793,49.134-22.478,62.868c-7.046,7.072-19.217,15.125-20.958,24.956
	c-0.616,3.48-1.418,6.769-1.619,10.013c-0.316,5.082-0.552,10.819-0.725,16.991l134.106-134.106L256.5,7L6.043,257.457
	l150.491,150.491C156.361,396.023,155.954,385.294,155.284,376.356z"/>
<g>
</g>
<g>
</g>
<g>
</g>
<g>
</g>
<g>
</g>
<g>
</g>
<g>
</g>
<g>
</g>
<g>
</g>
<g>
</g>
<g>
</g>
<g>
</g>
<g>
</g>
<g>
</g>
<g>
</g>
</svg>
